<svg width="52" height="52" viewBox="0 0 52 52" fill="none" xmlns="http://www.w3.org/2000/svg">
<g clip-path="url(#clip0_123_619)">
<mask id="path-1-inside-1_123_619" fill="white">
<path d="M51.906 22.8411C51.906 31.7731 51.906 40.6917 51.906 49.6237C51.6235 50.1079 51.3948 50.646 51.0316 51.0495C50.507 51.6011 49.7537 51.6414 49.0138 51.6414C33.7729 51.6414 18.5454 51.6414 3.30454 51.6414C1.48854 51.6414 0.937019 51.2782 0.250977 49.6237C0.250977 37.2345 0.250977 24.8589 0.250977 12.4697C0.600724 11.6492 1.08499 10.9631 1.99971 10.6672C10.2322 7.93648 18.4513 5.20576 26.6703 2.47504C28.8092 1.76209 30.9346 1.0357 33.0734 0.349654C34.6204 -0.148063 35.8983 0.551431 36.3153 2.08494C36.396 2.38088 36.4095 2.71717 36.4095 3.02657C36.4095 7.30424 36.4229 11.5819 36.4095 15.8596C36.4095 16.1959 36.4902 16.3573 36.8265 16.4784C41.1041 17.9177 45.3684 19.3974 49.646 20.7964C50.7491 21.1462 51.5428 21.7246 51.906 22.8411ZM15.7609 46.4759C15.7609 46.2203 15.7609 46.032 15.7609 45.8302C15.7609 44.2429 15.7475 42.6422 15.7878 41.0548C15.8147 39.9383 16.5411 39.1178 17.5904 38.8488C19.4467 38.3914 20.8995 39.5079 20.9264 41.418C20.9399 42.9247 20.9264 44.4447 20.9264 45.9513C20.9264 46.1262 20.9399 46.3011 20.9533 46.4759C24.397 46.4759 27.7868 46.4759 31.2171 46.4759C31.2171 33.0914 31.2171 19.7203 31.2171 6.32226C31.0287 6.37607 30.8673 6.41642 30.7059 6.45678C22.433 9.1875 14.1602 11.9048 5.88729 14.622C5.52409 14.7431 5.40302 14.8911 5.40302 15.2812C5.41647 25.5045 5.41647 35.7145 5.41647 45.9379C5.41647 46.1127 5.42993 46.2876 5.44338 46.4759C8.88704 46.4759 12.2769 46.4759 15.7609 46.4759ZM36.4364 21.7515C36.4364 30.0378 36.4364 38.2569 36.4364 46.4625C39.88 46.4625 43.2833 46.4625 46.7136 46.4625C46.727 46.3011 46.7405 46.18 46.7405 46.0455C46.7405 39.1985 46.7405 32.365 46.7539 25.518C46.7539 25.1952 46.6597 25.0472 46.3504 24.953C44.4671 24.3611 42.5838 23.7424 40.7006 23.137C39.3016 22.6797 37.9026 22.2223 36.4364 21.7515Z"/>
</mask>
<path d="M51.906 22.8411C51.906 31.7731 51.906 40.6917 51.906 49.6237C51.6235 50.1079 51.3948 50.646 51.0316 51.0495C50.507 51.6011 49.7537 51.6414 49.0138 51.6414C33.7729 51.6414 18.5454 51.6414 3.30454 51.6414C1.48854 51.6414 0.937019 51.2782 0.250977 49.6237C0.250977 37.2345 0.250977 24.8589 0.250977 12.4697C0.600724 11.6492 1.08499 10.9631 1.99971 10.6672C10.2322 7.93648 18.4513 5.20576 26.6703 2.47504C28.8092 1.76209 30.9346 1.0357 33.0734 0.349654C34.6204 -0.148063 35.8983 0.551431 36.3153 2.08494C36.396 2.38088 36.4095 2.71717 36.4095 3.02657C36.4095 7.30424 36.4229 11.5819 36.4095 15.8596C36.4095 16.1959 36.4902 16.3573 36.8265 16.4784C41.1041 17.9177 45.3684 19.3974 49.646 20.7964C50.7491 21.1462 51.5428 21.7246 51.906 22.8411ZM15.7609 46.4759C15.7609 46.2203 15.7609 46.032 15.7609 45.8302C15.7609 44.2429 15.7475 42.6422 15.7878 41.0548C15.8147 39.9383 16.5411 39.1178 17.5904 38.8488C19.4467 38.3914 20.8995 39.5079 20.9264 41.418C20.9399 42.9247 20.9264 44.4447 20.9264 45.9513C20.9264 46.1262 20.9399 46.3011 20.9533 46.4759C24.397 46.4759 27.7868 46.4759 31.2171 46.4759C31.2171 33.0914 31.2171 19.7203 31.2171 6.32226C31.0287 6.37607 30.8673 6.41642 30.7059 6.45678C22.433 9.1875 14.1602 11.9048 5.88729 14.622C5.52409 14.7431 5.40302 14.8911 5.40302 15.2812C5.41647 25.5045 5.41647 35.7145 5.41647 45.9379C5.41647 46.1127 5.42993 46.2876 5.44338 46.4759C8.88704 46.4759 12.2769 46.4759 15.7609 46.4759ZM36.4364 21.7515C36.4364 30.0378 36.4364 38.2569 36.4364 46.4625C39.88 46.4625 43.2833 46.4625 46.7136 46.4625C46.727 46.3011 46.7405 46.18 46.7405 46.0455C46.7405 39.1985 46.7405 32.365 46.7539 25.518C46.7539 25.1952 46.6597 25.0472 46.3504 24.953C44.4671 24.3611 42.5838 23.7424 40.7006 23.137C39.3016 22.6797 37.9026 22.2223 36.4364 21.7515Z" fill="black"/>

<path d="M18.3038 28.4517C20.0122 28.4517 21.734 28.4382 23.4424 28.4517C25.3391 28.4786 26.4287 29.9045 25.9848 31.7474C25.7023 32.9311 24.7741 33.6037 23.3886 33.6037C20.4695 33.6172 17.537 33.6037 14.618 33.6037C13.9992 33.6037 13.367 33.6441 12.7616 33.5634C11.3492 33.375 10.5017 32.3123 10.5824 30.8999C10.6632 29.4471 11.5644 28.5055 13.0172 28.4786C14.7794 28.4248 16.5416 28.4517 18.3038 28.4517Z" fill="#FFC015"/>
<path d="M18.3574 23.2717C16.5818 23.2717 14.7927 23.2986 13.017 23.2583C11.8736 23.2314 10.932 22.4108 10.663 21.3212C10.3939 20.2316 10.8513 19.0479 11.8333 18.5098C12.2234 18.2946 12.7211 18.1331 13.165 18.1331C16.6221 18.1062 20.0927 18.0928 23.5498 18.1331C25.6483 18.16 26.8052 20.3796 25.6887 22.1687C25.1775 22.9892 24.3838 23.2852 23.4557 23.2852C21.7473 23.2717 20.0523 23.2717 18.3574 23.2717Z" fill="#FFC015"/>
</g>
<defs>
<clipPath id="clip0_123_619">
<rect width="51.655" height="51.4532" fill="white" transform="translate(0.250977 0.188843)"/>
</clipPath>
</defs>
</svg>
